<svg id="Layer_1" data-name="Layer 1" xmlns="http://www.w3.org/2000/svg" viewBox="0 0 1080 1080"><defs><style>.cls-1{fill:#d6d6d8;}.cls-2{fill:#b1b1b2;}.cls-3{fill:#6b6b6b;}.cls-4{fill:#b4b4b4;}.cls-5{fill:#ffd744;}.cls-6{fill:#fbb826;}.cls-7{fill:#b998eb;}.cls-8{fill:#af91e7;}.cls-9{fill:#8365b0;}.cls-10{fill:#ff5283;}.cls-11,.cls-16,.cls-21{fill:none;}.cls-11{stroke:#fbb826;}.cls-11,.cls-16{stroke-miterlimit:10;}.cls-12{fill:#b53260;}.cls-13{fill:#ff447d;}.cls-14{fill:#77b2d1;}.cls-15{fill:#6496b0;}.cls-16{stroke:#b53260;}.cls-17{fill:#6cb0eb;}.cls-18{fill:#2a3e6b;}.cls-19{fill:#72e2b0;}.cls-20{fill:#fff;}.cls-21{stroke:#fff;stroke-linecap:round;stroke-linejoin:round;stroke-width:5px;}</style></defs><path class="cls-1" d="M982.29,873.07c-80,88.94-862.17,65.53-884.64,0,3.89-16.36,23-28,58.81-34.53l.09,0v11.36h0c-30.88,10.14-38.21,20.77-15.63,32a81.57,81.57,0,0,0,12.71,5c136.63,41.52,643.81,44.54,782.79-3a31.24,31.24,0,0,0,9.89-5.47c13.08-10.87-.2-20.12-20.82-27.26l-.25-.09V838.18l.25.07C966,848.72,983.48,860.41,982.29,873.07Z"/><path class="cls-2" d="M982.29,873.07v18.55a18.82,18.82,0,0,1-2.35,3.93.14.14,0,0,0,0-.06c-.13.2-.26.41-.41.61-2.92,3.64-7.41,7.12-13.31,10.45l-.45.25c-111.47,58.06-762.15,59.48-857.7-3.14-5.13-4-8.66-8.18-10.4-12.63v-18C120.12,938.6,902.25,962,982.29,873.07Z"/><path class="cls-3" d="M99.19,895.65h0c53.25,74.8,835.21,71.44,880.73-.17,36.88,87-901.16,90.29-880.73.16Z"/><path class="cls-4" d="M946.3,878.38a31.24,31.24,0,0,1-9.89,5.47c-139,47.59-646.16,44.57-782.79,3a81.57,81.57,0,0,1-12.71-5c-22.58-11.26-15.25-21.89,15.63-32a16.66,16.66,0,0,0,6.19,11.5c74.65,58.83,758.16,53.06,762.75-10.19v-.07C946.1,858.26,959.38,867.51,946.3,878.38Z"/><path class="cls-5" d="M926.5,623V851.19c-4.59,63.25-688.1,69-762.75,10.19a16.66,16.66,0,0,1-6.19-11.5c-.05-.56-.08-1.12-.08-1.69V623Z"/><path class="cls-6" d="M911.82,590c7.51,5.47,6.29,36.24,5,67.27a16.13,16.13,0,0,0,2.37,9.13c3.1,5,7.18,11.62,8.92,15.34,3.15,6.71,4.21,14.53,2.15,21.65s-7.43,13.38-14.45,15.76a33.87,33.87,0,0,1-14.94,1.65c-5-.64-10.21-.65-14.68-2.93-10.37-5.3-16.1-16.91-18.31-28.34s-1.58-23.23-3-34.79c-.65-5.29-1.86-10.81-5.46-14.73-5.5-6-15.17-6.38-22.62-3.12l-.22.1a32.63,32.63,0,0,0-18.71,35.1,58.61,58.61,0,0,0,5.92,17.8c3.84,7.3,9.32,14.05,10.57,22.2,1.3,8.41-2.43,17.22-8.82,22.85s-15.3,9-23.64,7.3a23.19,23.19,0,0,1-12.06-6.15c-3.69-3.83-5.42-9.18-6-14.46s-.15-10.63-.12-15.94a104.15,104.15,0,0,0-3.26-26.42c-1.41-5.5-3.36-11-7.14-15.29-5.56-6.26-14.63-8.8-22.9-7.46s-15.71,6.18-21.25,12.47a47.88,47.88,0,0,0-11.85,31.66c.07,11.52.43,28.29,11.14,32.55a30.34,30.34,0,0,1,18.72,24.61c1.05,10.79-4.71,22-14.24,27.2s-22.29,3.77-30.25-3.59c-4.66-4.31-7.55-10.24-9.33-16.33s-2.54-12.42-3.57-18.68a216.77,216.77,0,0,0-8.65-34.49c-2.42-7.1-5.45-14.41-11.32-19.09-6.73-5.38-16.61-6.22-24.39-2.52a26.85,26.85,0,0,0-14.52,20.13c-1.65,11.09,3.31,22,8.43,32s10,20,10.37,31.23c.91,26.74-38,43.43-56.17,17.69a34.52,34.52,0,0,1-5.22-11.5,37.3,37.3,0,0,1-1-9.11l-.07-65.9Z"/><path class="cls-6" d="M582.49,689.28c-17.9-6.48-37.47,4.11-42.85,22.37-4,13.49-3.93,30.88-2.71,49.42,3,34,.86,59.88-18.55,58.55-31-1.7-46.13-20.53-31.15-54.21,18.71-33.94,15.79-57.21-14-67.24a30.39,30.39,0,0,0-21.6.6c-14.88,6.34-19,22.2-18.57,42.13a20.73,20.73,0,0,1-6.2,15.5c-9.33,8.89-23.36,5.84-28.17-7a23.47,23.47,0,0,1-.63-13.71c5.89-24.4,5.59-44.12-16.33-47.52-1.26-.2-2.51-.47-3.74-.76-16.06-3.85-22.77,11.73-29.56,32.42a38.67,38.67,0,0,1-18.1,22.08c-15,8.11-28.42,2.34-31.09-14.38a25.92,25.92,0,0,1,3.93-17.7A29.79,29.79,0,0,0,304.76,681c-4.82-9.61-15.86-14.38-26.32-11.93-19.51,4.56-25,21-19.81,46.57,3.87,30.77,2.28,53.5-6.72,65.34a19.71,19.71,0,0,1-21.4,6.67c-23.42-7.1-30.88-27.28-13.33-67.94a73.31,73.31,0,0,0,4.64-14.28c6.13-29.82-9.18-46-20.88-45.77a7.92,7.92,0,0,0-4.78,1.84c-4.35,4.27-5.15,14.52-5.53,26.92A15.94,15.94,0,0,1,184,700.92c-14.76,10.5-35.13,1.27-37.67-16a13.28,13.28,0,0,1,3.22-10.66,67.46,67.46,0,0,0,6.58-8.64,47,47,0,0,0,7.07-24.38l.8-48.31Z"/><path class="cls-7" d="M940.24,703.4c-2,7.12-7.43,13.38-14.45,15.76a33.87,33.87,0,0,1-14.94,1.65c-5-.64-10.21-.65-14.68-2.93-10.37-5.3-16.1-16.91-18.31-28.34s-1.58-23.23-3-34.79c-.65-5.29-1.86-10.81-5.46-14.73-5.5-6-15.17-6.38-22.62-3.12l-.22.1a32.63,32.63,0,0,0-18.71,35.1,58.61,58.61,0,0,0,5.92,17.8c3.84,7.3,9.32,14.05,10.57,22.2,1.3,8.41-2.43,17.22-8.82,22.85s-15.3,9-23.64,7.3a23.19,23.19,0,0,1-12.06-6.15c-3.69-3.83-5.42-9.18-6-14.46s-.15-10.63-.12-15.94a104.15,104.15,0,0,0-3.26-26.42c-1.41-5.5-3.36-11-7.14-15.29-5.56-6.26-14.63-8.8-22.9-7.46s-15.71,6.18-21.25,12.47a47.88,47.88,0,0,0-11.85,31.66c.07,11.52.43,28.29,11.14,32.55a30.34,30.34,0,0,1,18.72,24.61c1.05,10.79-4.71,22-14.24,27.2s-22.29,3.77-30.25-3.59c-4.66-4.31-7.55-10.24-9.33-16.33s-2.54-12.42-3.57-18.68a216.77,216.77,0,0,0-8.65-34.49c-2.42-7.1-5.45-14.41-11.32-19.09-6.73-5.38-16.61-6.22-24.39-2.52a26.85,26.85,0,0,0-14.52,20.13c-1.65,11.09,3.31,22,8.43,32s10,20,10.37,31.23c.91,26.74-38,43.43-56.17,17.69a35.85,35.85,0,0,1-6.26-17.78l-4.46-54.71c-2-14.59-8-25.14-20.31-29.58-17.9-6.48-37.47,4.11-42.85,22.37-4,13.49-3.93,30.88-2.71,49.42,3,34,.86,59.88-18.55,58.55-31-1.7-46.13-20.53-31.15-54.21,18.71-33.94,15.79-57.21-14-67.24a30.39,30.39,0,0,0-21.6.6c-14.88,6.34-19,22.2-18.57,42.13a20.73,20.73,0,0,1-6.2,15.5c-9.33,8.89-23.36,5.84-28.17-7a23.47,23.47,0,0,1-.63-13.71c5.89-24.4,5.59-44.12-16.33-47.52-1.26-.2-2.51-.47-3.74-.76-16.06-3.85-22.77,11.73-29.56,32.42a38.67,38.67,0,0,1-18.1,22.08c-15,8.11-28.42,2.34-31.09-14.38a25.92,25.92,0,0,1,3.93-17.7A29.79,29.79,0,0,0,294.76,681c-4.82-9.61-15.86-14.38-26.32-11.93-19.51,4.56-25,21-19.81,46.57,3.87,30.77,2.28,53.5-6.72,65.34a19.71,19.71,0,0,1-21.4,6.67c-23.42-7.1-30.88-27.28-13.33-67.94a73.31,73.31,0,0,0,4.64-14.28c6.13-29.82-9.18-46-20.88-45.77a7.92,7.92,0,0,0-4.78,1.84c-4.35,4.27-5.15,14.52-5.53,26.92A15.94,15.94,0,0,1,174,700.92c-14.76,10.5-35.13,1.27-37.67-16a13.28,13.28,0,0,1,3.22-10.66,67.46,67.46,0,0,0,6.58-8.64,47,47,0,0,0,7.07-24.38l.8-48.31c80.55,71,747.7,64.51,767.78-2.89,7.51,5.47,6.29,36.24,5,67.27a16.13,16.13,0,0,0,2.37,9.13c3.1,5,7.18,11.62,8.92,15.34C941.24,688.46,942.3,696.28,940.24,703.4Z"/><path class="cls-8" d="M921.56,589.78c-24.89,66.57-685.16,72.81-767.13,2.45,9.33-14.78,61.21-26.18,116.72-30.72l.11,8.14a14.13,14.13,0,0,0,8.22,12.7c64.34,29.24,440.25,37.85,502.86-3.87a5.19,5.19,0,0,0,2.3-4.28l.06-15C849,566,905.07,574.49,921.56,589.78Z"/><path class="cls-9" d="M921.82,590c-20.08,67.4-687.23,73.87-767.78,2.89.12-.22.25-.45.39-.67,82,70.36,742.24,64.12,767.13-2.45Z"/><path class="cls-5" d="M785.31,409.67V574c-3.06,45.55-459.34,49.71-509.17,7.34A12.27,12.27,0,0,1,272,573a12.1,12.1,0,0,1-.06-1.21V409.67l63,23.91,191.63,16.85,167.35-18.38Z"/><path class="cls-6" d="M554.74,461a30.82,30.82,0,0,0-4.38.31c-.4.05-.8.11-1.19.19a27.65,27.65,0,0,0-4.84,1.3c-4.62,1.68-8.65,4.61-10.91,8.94-2.4,4.6-2.45,10.1-1.54,15.21s2.69,10,3.8,15.09a58.44,58.44,0,0,1,1.1,18.32c-.35,3.57-1.07,7.22-3,10.23C530,536.27,522.81,539.94,516,540a57.68,57.68,0,0,1-6.7-.31,37.66,37.66,0,0,1-12.8-3.53c-6-3-11.08-8.17-12.89-14.61-2.06-7.32.25-15.16,3.34-22.12s7-13.71,8.3-21.21c.53-3,.59-6.29-.84-9-2.36-4.52-8-6.2-13.11-6.4a20.54,20.54,0,0,0-5.91.5,11.19,11.19,0,0,0-3.76,1.69c-3.36,2.38-4.86,6.66-5.21,10.77s.26,8.23.13,12.34a20.63,20.63,0,0,1-4.08,11.45c-2.24,3.09-6.12,5.32-9.85,4.48a7.94,7.94,0,0,1-3.18-1.55,11.5,11.5,0,0,1-3.25-4.12A29.59,29.59,0,0,1,444,489.8q-1.22-8.08-2.42-16.17A66.24,66.24,0,0,0,439,461.69a22,22,0,0,0-6.65-10.07,15,15,0,0,0-10.28-3.33,13.14,13.14,0,0,0-3.95.92,12.15,12.15,0,0,0-5.42,4.25c-3.18,4.55-2.67,10.69-1.31,16.07.9,3.58,2.13,7.2,1.72,10.86s-2.83,5.73-6.24,7.14a11.5,11.5,0,0,1-9.12-.39,16.52,16.52,0,0,1-6.29-4.87c-3.61-4.59-5.05-10.46-6.38-16.14s-2.75-11.55-6.32-16.16a20.7,20.7,0,0,0-15.67-7.9,15.37,15.37,0,0,0-5.05.76c-3.51,1.15-6.51,3.59-7.16,7.13-.74,4,1.65,7.79,3.34,11.49,3,6.53,3.82,14.39.61,20.82s-11.1,10.65-17.87,8.28c-.3-.1-.59-.22-.87-.34-5.07-2.21-8.29-7.57-9.63-13-1.42-5.73-1.18-11.71-1.76-17.59s-2.17-12-6.41-16.09a13.43,13.43,0,0,0-8.75-3.91,11,11,0,0,0-5.25,1.15,9.51,9.51,0,0,0-3.35,2.75c-2.92,3.87-2.36,9.3-3.93,13.89-2.53,7.37-11.33,11.92-18.81,9.72-.32-.1-.64-.2-.95-.32a14.82,14.82,0,0,1-5.34-3.56,15.81,15.81,0,0,1-4.22-14.49,23.45,23.45,0,0,1,4.22-8.55,34.66,34.66,0,0,1,6.21-6.25L276,412l3.62.64,42,7.38,1.71.3,139.74,24.57,89.79,15.79Z"/><path class="cls-6" d="M544.33,462.75c2.82,2.81,3.81,8.06,2.91,11.94-1.43,6.2-3.59,12.3-3.91,18.66s1.6,13.29,6.76,17c4.18,3,9.63,3.4,14.78,3.56,3.78.11,7.92-1,10.54-3.76s4.16-6.32,5.36-9.91a69.81,69.81,0,0,0,3-13.09c.82-6.2.81-12.5,2-18.65s3.63-12.34,8.45-16.34c2-1.63,4.5-2.89,7-2.42a7.75,7.75,0,0,1,5.31,4.64,22.81,22.81,0,0,1,1.5,7.15q1.17,12.06,2,24.16c.19,2.89.39,5.88,1.81,8.4,1.67,3,4.83,4.86,8.12,5.76a20,20,0,0,0,15.77-2.4,26.39,26.39,0,0,0,9-10.62,79.28,79.28,0,0,0,4.8-13.24c1.9-6.45,1.81-12.75,3.69-19.21.93-3.2,2-6.47,4.2-9a15.77,15.77,0,0,1,8.73-4.83c3.5-.74,7.36-.51,10.39,1.41s5,5.78,3.93,9.22-4.55,5.61-6,8.89c-1.24,2.73-.93,5.89-.35,8.83,1.09,5.49,3.22,11,7.41,14.72,6.23,5.5,16,5.69,23.37,1.81s12.46-11.12,15.45-18.88c3.07-8,.3-17.25,3.2-25.29,1.79-5,4.28-9.91,8.42-13.2a20.9,20.9,0,0,1,11-4.23,19.56,19.56,0,0,1,12.71,2.88,14,14,0,0,1,6.4,11.08c.1,5.51-3.49,10.33-7.1,14.5s-7.58,8.48-8.51,13.91c-.8,4.74.86,9.52,2.61,14a17.21,17.21,0,0,0,8.29,9.57A20.32,20.32,0,0,0,770,491.09a24.09,24.09,0,0,0,18-17,30.4,30.4,0,0,0-.71-16.53,71,71,0,0,0-7.07-15.15V404.47Z"/><path class="cls-10" d="M795,474.1a24,24,0,0,1-9.65,13.4,22.94,22.94,0,0,1-8.3,3.59,21.48,21.48,0,0,1-8,.19,18.32,18.32,0,0,1-4.78-1.5,17.24,17.24,0,0,1-8.28-9.56c-1.75-4.48-3.42-9.26-2.61-14,.93-5.43,4.89-9.75,8.5-13.91s7.21-9,7.11-14.5a14.06,14.06,0,0,0-6.4-11.08,19.62,19.62,0,0,0-12.71-2.88q-.69.06-1.38.18a20.55,20.55,0,0,0-9.57,4.06c-4.14,3.28-6.63,8.22-8.42,13.19-2.9,8-.13,17.32-3.2,25.3-3,7.75-8.1,15-15.45,18.88a23.09,23.09,0,0,1-14.19,2.37h0a18,18,0,0,1-9.16-4.19c-4.19-3.7-6.32-9.23-7.41-14.72-.58-2.94-.89-6.1.35-8.82,1.49-3.29,5-5.44,6-8.9s-.89-7.29-3.92-9.21-6.88-2.15-10.38-1.41h0a15.72,15.72,0,0,0-8.72,4.82c-2.19,2.52-3.27,5.79-4.2,9-1.88,6.46-1.79,12.76-3.7,19.21a78.16,78.16,0,0,1-4.79,13.25,26.36,26.36,0,0,1-9,10.61,19.92,19.92,0,0,1-14.14,2.76,15.3,15.3,0,0,1-1.63-.36c-3.29-.9-6.46-2.78-8.12-5.75-1.42-2.52-1.62-5.52-1.81-8.41q-.78-12.09-2-24.16a22.43,22.43,0,0,0-1.51-7.14,7.72,7.72,0,0,0-5.31-4.65,7.33,7.33,0,0,0-4.78.91,12.66,12.66,0,0,0-2.23,1.51c-4.82,4-7.31,10.19-8.45,16.34s-1.14,12.45-2,18.66a69.89,69.89,0,0,1-3,13.08c-1.2,3.59-2.74,7.17-5.36,9.91s-6.76,3.87-10.54,3.76c-1.27,0-2.56-.09-3.84-.2-3.93-.31-7.8-1.09-10.94-3.36-5.16-3.72-7.08-10.65-6.76-17s2.48-12.45,3.91-18.66c.89-3.88,1.3-8.5-1.52-11.31a7.75,7.75,0,0,0-3.34-1.87l-.21-.05a16.92,16.92,0,0,0-4.43-.5c-8.37,0-17.45,3.32-21.32,10.74-2.4,4.6-2.45,10.1-1.54,15.21s2.69,10,3.8,15.09a58.44,58.44,0,0,1,1.1,18.32c-.35,3.57-1.07,7.22-3,10.23a22,22,0,0,1-14.47,9.15,19.39,19.39,0,0,1-3.3.31c-6.69.07-13.51-.87-19.5-3.84S475.4,528,473.59,521.56c-2.06-7.32.25-15.16,3.34-22.12s7-13.71,8.3-21.21c.53-3,.59-6.29-.84-9-1.74-3.33-5.25-5.11-9-5.9a23.8,23.8,0,0,0-4.09-.5c-3.36-.14-6.92.24-9.67,2.19-3.36,2.38-4.86,6.66-5.21,10.77s.26,8.23.13,12.34a20.63,20.63,0,0,1-4.08,11.45,12.23,12.23,0,0,1-3,2.93A8.79,8.79,0,0,1,442.6,504a10,10,0,0,1-6.43-5.67A29.59,29.59,0,0,1,434,489.8q-1.22-8.08-2.42-16.17A66.24,66.24,0,0,0,429,461.69a22,22,0,0,0-6.65-10.07,15.56,15.56,0,0,0-4.23-2.41,14.18,14.18,0,0,0-6.05-.92,12.62,12.62,0,0,0-9.37,5.17c-3.18,4.55-2.67,10.69-1.31,16.07.9,3.58,2.13,7.2,1.72,10.86-.38,3.35-2.42,5.35-5.36,6.75l-.88.39c-5.38,2.24-11.8-.68-15.41-5.26s-5.05-10.46-6.38-16.14-2.75-11.55-6.32-16.16a20.5,20.5,0,0,0-10.72-7.14,19.79,19.79,0,0,0-4.95-.76c-5.28-.11-11.25,2.7-12.21,7.89-.74,4,1.65,7.79,3.34,11.49,3,6.53,3.82,14.39.61,20.82a16.78,16.78,0,0,1-8.74,7.94,13.06,13.06,0,0,1-9.13.34c-5.57-1.95-9.08-7.61-10.5-13.34s-1.18-11.71-1.76-17.59-2.17-12-6.41-16.09a14.51,14.51,0,0,0-4-2.76,12.56,12.56,0,0,0-4.75-1.15,10.43,10.43,0,0,0-8.6,3.9c-2.92,3.87-2.36,9.3-3.93,13.89A16.05,16.05,0,0,1,272,467.68a13.33,13.33,0,0,1-3.71-.55c-7.47-2.21-12.4-10.81-10.51-18.37,1.48-6,5.61-11,10.43-14.8V399.24c3.84,8.45,23.54,15.44,53.51,20.74l1.71.3c109.1,18.81,349.57,15.66,463-21l.84,43.19a70.76,70.76,0,0,1,7.08,15.14A30.5,30.5,0,0,1,795,474.1Z"/><path class="cls-11" d="M344.63,378.18l-1.15.09"/><path class="cls-12" d="M786.33,399.24c-113.38,36.7-353.85,39.85-462.95,21l-1.71-.3c-30-5.3-49.67-12.29-53.51-20.74l.33-.35c4.53,8.16,24,14.93,53.18,20.09l1.71.3c109,18.79,348.94,15.67,462.5-20.9A7.84,7.84,0,0,1,786.33,399.24Z"/><path class="cls-13" d="M785.88,398.38c-113.56,36.57-353.54,39.69-462.5,20.9l-1.71-.3c-29.2-5.16-48.65-11.93-53.18-20.09,11.49-12.07,40.09-18,75-20.62v.22c0,.29,0,.58,0,.86a8.78,8.78,0,0,0,2.94,5.91C382,415.48,706.87,412.52,709.06,380v-2.28C753.77,381.64,780,388.41,785.88,398.38Z"/><path class="cls-5" d="M709.06,377.75V380c-2.19,32.49-327.11,35.45-362.6,5.23a8.78,8.78,0,0,1-2.94-5.91c0-.28,0-.57,0-.86v-.22l.58-71.07a15.58,15.58,0,0,0,5.75-.87,10.13,10.13,0,0,0,5.21-3.71c2.65-4,1-9.93,4.06-13.61a7.61,7.61,0,0,1,6-2.53,10.75,10.75,0,0,1,6.21,2.43c3.88,3,5.84,8.06,6.29,13s-.44,9.72-1.32,14.52a5.59,5.59,0,0,0,2.74,5.65c1.94,1,4.2,1,6.37.95s4.56-.11,6.25-1.5A7.87,7.87,0,0,0,394,316.9c1.5-7.16-.89-14.55-.63-21.86a9.43,9.43,0,0,1,1.4-5.22,7.44,7.44,0,0,1,6.14-2.73c4.67,0,8.89,3.11,11.55,7s4,8.4,5.5,12.84,3.06,9,6,12.55c3,1.08,6.32-.71,8.26-3.22s2.79-5.65,3.84-8.65,2.44-6.05,5-7.87,6.34-2.1,9.7-2c3,.07,6.25.43,8.19,2.66s1.86,5.53,1.41,8.44c-.48,3.06-1.25,6.07-1.73,9.12a24.91,24.91,0,0,0,0,9.23,12.36,12.36,0,0,0,5.09,7.85c2.63,1.68,7,1.45,9.63-.26,4.51-2.93,8.15-7.29,7-12.54a24,24,0,0,0-1-3.19,13.12,13.12,0,0,1,.36-10.16c4.35-9.16,16-6.78,19.22.3a22,22,0,0,1,1.5,6.63q.84,7,1.67,14c.79,6.68,1.76,13.77,6.09,18.9a17.47,17.47,0,0,0,11.31,6.05c5.26.59,11-1.61,13.69-6.16,2.48-4.17,2.06-9.56.11-14a40,40,0,0,0-7.28-10.32c-2.42-2.68-3.62-7.73-2.47-11.15a18,18,0,0,1,5.85-7.82,16.6,16.6,0,0,1,7.22-3.78,8.64,8.64,0,0,1,7.66,2A9.71,9.71,0,0,1,547,309c.54,3.57-.09,7.2-.7,10.76-.79,4.64-1.53,9.43.41,14a9.94,9.94,0,0,0,1.76,2.77,8.93,8.93,0,0,0,7.71,3c6-.43,11.61-5.95,12.64-11.85.18-1.06.32-2.12.46-3.18q1-7.31,1.93-14.62a34.36,34.36,0,0,1,1.81-8.36c1.32-3.33,3.83-6.35,7.52-7.06a6.68,6.68,0,0,1,4.94.9c3.19,2.11,3.21,6.13,3.47,9.67a46.4,46.4,0,0,0,5.23,18.31,16.34,16.34,0,0,0,4.69,5.93,8.63,8.63,0,0,0,9,0c5-3.35,7.51-10,9.36-16a58,58,0,0,0,1.74-9.37,35,35,0,0,1,2.27-9.23c1.67-3.81,4.76-7.18,9.12-7.8a8.08,8.08,0,0,1,2.9.13c4.69,1.11,5.9,5.25,6.9,9l4,15.34a.92.92,0,0,0,.09.23c2.8,6.11,7.67,4.19,10.76,1.54a23.05,23.05,0,0,0,5.52-7c3-5.95,1.16-13.06,2.51-19.59a12.37,12.37,0,0,1,1.89-5,8,8,0,0,1,5.07-2.86,13,13,0,0,1,10.09,2.77,19.69,19.69,0,0,1,6.06,8.74,40.56,40.56,0,0,1,2.09,10.54c.26,3,.4,6.05,1.84,8.66a8.82,8.82,0,0,0,4.42,3.88,19.35,19.35,0,0,0,5.94,1.17,24.54,24.54,0,0,0,8-.59Z"/><path class="cls-6" d="M707.53,313.49c-2-.13-4.18.48-6.06-.27a8.82,8.82,0,0,1-4.42-3.88c-1.44-2.61-1.58-5.7-1.84-8.66a40.56,40.56,0,0,0-2.09-10.54,19.69,19.69,0,0,0-6.06-8.74,13.88,13.88,0,0,0-6.61-2.84h0a11.4,11.4,0,0,0-3.45.07,8,8,0,0,0-5.07,2.86,12.37,12.37,0,0,0-1.89,5c-1.35,6.53.52,13.64-2.51,19.59a23.05,23.05,0,0,1-5.52,7,11.06,11.06,0,0,1-4.05,2.3c-2.42.66-5,0-6.71-3.84a.92.92,0,0,1-.09-.23l-4-15.34c-1-3.79-2.21-7.93-6.9-9l-.28-.06a8,8,0,0,0-2.62-.07c-4.36.62-7.45,4-9.12,7.8a35,35,0,0,0-2.27,9.23,58,58,0,0,1-1.74,9.37c-1.85,6-4.31,12.62-9.36,16a7.8,7.8,0,0,1-3.1,1.15h0a8.08,8.08,0,0,1-5.85-1.11,16.34,16.34,0,0,1-4.69-5.93A46.4,46.4,0,0,1,595.92,305c-.26-3.54-.28-7.56-3.47-9.67a6.17,6.17,0,0,0-2.07-.87h0a7.06,7.06,0,0,0-2.86,0c-3.69.71-6.2,3.73-7.52,7.06a34.36,34.36,0,0,0-1.81,8.36q-1,7.31-1.93,14.62c-.14,1.06-.28,2.12-.46,3.18-1,5.68-6.25,11-12,11.77h0c-.22,0-.44.06-.66.08a8.93,8.93,0,0,1-7.71-3,9.94,9.94,0,0,1-1.76-2.77c-1.94-4.53-1.2-9.32-.41-14,.61-3.56,1.24-7.19.7-10.76-.28-1.83-2.26-5-3.76-6.75-.18-.21-.36-.4-.52-.56l.86-.24h0l1-.27,98.69-26.69h.05l1.9-.52,4.07-.43h0c30.73-3.4,43.82-5,51.55-10.35"/><path class="cls-6" d="M542.75,301.47c-.38.08-.76.17-1.13.28h0a13.82,13.82,0,0,0-1.4.52,19.86,19.86,0,0,0-4.68,3,18,18,0,0,0-5.85,7.82c-1.15,3.42.05,8.47,2.47,11.15a40,40,0,0,1,7.28,10.32c2,4.44,2.37,9.83-.11,14-2.7,4.55-8.43,6.75-13.69,6.16-.44-.05-.87-.12-1.31-.21h0a17.41,17.41,0,0,1-10-5.84c-4.33-5.13-5.3-12.22-6.09-18.9q-.84-7-1.67-14a22,22,0,0,0-1.5-6.63A11.26,11.26,0,0,0,492,303.27a10,10,0,0,0-6.15,5.55,13.12,13.12,0,0,0-.36,10.16,24,24,0,0,1,1,3.19c1.12,5.25-2.52,9.61-7,12.54a10.09,10.09,0,0,1-8.13,1h0a6.79,6.79,0,0,1-1.49-.7,12.36,12.36,0,0,1-5.09-7.85,24.91,24.91,0,0,1,0-9.23c.48-3.05,1.25-6.06,1.73-9.12.45-2.91.53-6.22-1.41-8.44s-5.23-2.59-8.19-2.66a33.07,33.07,0,0,0-4,.11h0a12,12,0,0,0-5.69,1.91c-2.6,1.82-4,4.88-5,7.87s-1.91,6.14-3.84,8.65-5.28,4.3-8.26,3.22q-.3-.36-.57-.72c-2.63-3.47-4.13-7.68-5.48-11.83-1.45-4.44-2.84-9-5.5-12.84s-6.88-6.92-11.55-7a8.85,8.85,0,0,0-2.93.46h0a6.35,6.35,0,0,0-3.2,2.27,9.43,9.43,0,0,0-1.4,5.22c-.26,7.31,2.13,14.7.63,21.86a7.87,7.87,0,0,1-2.36,4.61c-1.69,1.39-4.06,1.48-6.25,1.5a25.25,25.25,0,0,1-3.48-.12h0a8.64,8.64,0,0,1-2.86-.83,5.59,5.59,0,0,1-2.74-5.65c.88-4.8,1.75-9.66,1.32-14.52s-2.41-9.93-6.29-13a10.75,10.75,0,0,0-6.21-2.43,8.29,8.29,0,0,0-3.2.54,7,7,0,0,0-2.84,2c-3.08,3.68-1.41,9.61-4.06,13.61a10.13,10.13,0,0,1-5.21,3.71,15.42,15.42,0,0,1-8.16.58,13.28,13.28,0,0,1-2.23-.66,12.65,12.65,0,0,1-7.24-7.32c-1.42-4-.53-8.53,1.58-12.2a33.33,33.33,0,0,1,8.38-9.66v-15.3c12.34,6,43.12,11.13,84.23,14.24L541.58,301.2Z"/><path class="cls-14" d="M715.19,309.78a13.67,13.67,0,0,1-6.81,4,22.89,22.89,0,0,1-6.5.66l-.66,0h-.06l-.75,0a19.35,19.35,0,0,1-5.94-1.17,8.82,8.82,0,0,1-4.42-3.88c-1.44-2.61-1.58-5.7-1.84-8.66a40.56,40.56,0,0,0-2.09-10.54,19.69,19.69,0,0,0-6.06-8.74,13.15,13.15,0,0,0-1.08-.76c-.2-.14-.4-.26-.61-.38s-.42-.24-.63-.34-.67-.33-1-.47-.69-.27-1-.38l-.44-.13-.43-.11-.19-.05-.42-.09-.39-.07c-.31-.06-.63-.09-.94-.12h0c-.32,0-.63,0-1,0l-.58,0H671l-.59.07h0l-.45.07a8,8,0,0,0-5.07,2.86,12.37,12.37,0,0,0-1.89,5c-1.35,6.53.52,13.64-2.51,19.59a23.05,23.05,0,0,1-5.52,7c-2,1.68-4.64,3.07-7.05,2.3l-.06,0-.26-.1a5.19,5.19,0,0,1-2.05-1.55,7,7,0,0,1-.61-.84c-.07-.1-.13-.2-.19-.3a9,9,0,0,1-.54-1,.92.92,0,0,1-.09-.23l-4-15.34c-1-3.79-2.21-7.93-6.9-9a8.08,8.08,0,0,0-2.9-.13l-.38.07h0l-.31.06-.31.08-.24.06h0l-.27.08a2.11,2.11,0,0,0-.3.1c-.24.08-.48.18-.71.28s-.37.16-.54.25l-.4.22a7.94,7.94,0,0,0-.87.55,4.59,4.59,0,0,0-.44.33c-.14.1-.28.22-.42.34a5.34,5.34,0,0,0-.44.39c-.15.14-.3.28-.44.43l-.35.38-.26.3a6,6,0,0,0-.39.49c-.13.17-.26.34-.38.52s-.24.35-.35.53-.21.33-.31.5a4.25,4.25,0,0,0-.27.46c-.24.44-.47.9-.67,1.36a35,35,0,0,0-2.27,9.23,58,58,0,0,1-1.74,9.37c-1.85,6-4.31,12.62-9.36,16a7.12,7.12,0,0,1-1,.55,5.42,5.42,0,0,1-.56.22l-.26.08-.06,0a2.91,2.91,0,0,1-.39.12l-.45.1-.36.06a5.77,5.77,0,0,1-.58.08h-.08a8.31,8.31,0,0,1-.87,0,9,9,0,0,1-1.47-.13h0a7.43,7.43,0,0,1-1.37-.35l-.11,0-.06,0a4.06,4.06,0,0,1-.52-.22,2.28,2.28,0,0,1-.3-.17,4.94,4.94,0,0,1-.49-.3,16.34,16.34,0,0,1-4.69-5.93A46.4,46.4,0,0,1,588.92,305c-.26-3.54-.28-7.56-3.47-9.67a6.68,6.68,0,0,0-4.94-.9l-.13,0h0c-.22,0-.43.1-.64.16l-.61.2-.1,0-.27.11a1.51,1.51,0,0,0-.26.12,6.54,6.54,0,0,0-.59.3l-.48.3a5.3,5.3,0,0,0-.54.39c-.2.15-.39.31-.58.48l-.42.4c-.13.13-.27.27-.4.42l-.07.08c-.28.33-.56.68-.81,1-.14.18-.26.37-.38.56l0,0a12.93,12.93,0,0,0-.64,1.15c-.2.41-.39.82-.55,1.23a34.36,34.36,0,0,0-1.81,8.36q-1,7.31-1.93,14.62c-.14,1.06-.28,2.12-.46,3.18-1,5.9-6.67,11.42-12.64,11.85l-.86,0c-.25,0-.49,0-.73,0a6,6,0,0,1-.74-.08h0l-.56-.1-.22,0-.57-.15h0l-.08,0-.42-.15-.06,0-.31-.13a3.86,3.86,0,0,1-.41-.2,5.38,5.38,0,0,1-.7-.39c-.14-.09-.28-.18-.41-.28h0a6.71,6.71,0,0,1-.8-.65l-.4-.37-.39-.41a9.94,9.94,0,0,1-1.76-2.77c-1.94-4.53-1.2-9.32-.41-14,.61-3.56,1.24-7.19.7-10.76a9.71,9.71,0,0,0-2.56-5.59c-.19-.18-.39-.35-.59-.51l-.36-.26-.06,0,0,0-.26-.17-.26-.14-.32-.17-.33-.14a3.33,3.33,0,0,0-.52-.21l0,0h0a7.74,7.74,0,0,0-1.05-.28h0l-.11,0a2,2,0,0,0-.35-.06,3.55,3.55,0,0,0-.47-.06l-.3,0-.63,0a9.74,9.74,0,0,0-1.94.19,16.6,16.6,0,0,0-7.22,3.78,18,18,0,0,0-5.85,7.82c-1.15,3.42.05,8.47,2.47,11.15a40,40,0,0,1,7.28,10.32c2,4.44,2.37,9.83-.11,14-.15.25-.31.5-.48.74s-.27.36-.42.54l-.07.09v0a.27.27,0,0,1-.07.08l-.06.07,0,0,0,0c-.07.09-.15.17-.23.26l-.09.09-.15.16c-.05.05-.09.1-.15.15a1.88,1.88,0,0,1-.25.24,3.08,3.08,0,0,1-.33.3,6.4,6.4,0,0,1-.49.42l-.1.07c-.21.17-.43.32-.65.47s-.49.32-.74.47l-.08.05-.7.37-.76.35-.11,0-.76.29a14.13,14.13,0,0,1-1.57.46l-.34.08-.34.07h0l-.74.13-.6.08c-.25,0-.5.05-.76.06s-.59,0-.89,0a15.81,15.81,0,0,1-1.69-.09,17.47,17.47,0,0,1-11.31-6.05c-4.33-5.13-5.3-12.22-6.09-18.9q-.84-7-1.67-14a22,22,0,0,0-1.5-6.63c-.11-.24-.23-.47-.36-.7a4.86,4.86,0,0,0-.33-.54,3.21,3.21,0,0,0-.34-.48,4.5,4.5,0,0,0-.39-.5c-.09-.12-.19-.24-.29-.35l-.1-.1-.42-.42-.13-.12-.52-.46h0c-.2-.16-.41-.32-.62-.46a5.72,5.72,0,0,0-.57-.39l-.27-.16a10.54,10.54,0,0,0-1.21-.61,6.52,6.52,0,0,0-.73-.29,7.32,7.32,0,0,0-.75-.25h0a9.94,9.94,0,0,0-12.15,5.55,13.12,13.12,0,0,0-.36,10.16,24,24,0,0,1,1,3.19c1.12,5.25-2.52,9.61-7,12.54a8.78,8.78,0,0,1-1.05.57l-.52.2-.56.19h0l-.55.15-.57.12-.29.05-.29,0a5.7,5.7,0,0,1-.58.06c-.26,0-.51,0-.77,0a8.35,8.35,0,0,1-4.44-1.15,12.36,12.36,0,0,1-5.09-7.85,24.91,24.91,0,0,1,0-9.23c.48-3.05,1.25-6.06,1.73-9.12.45-2.91.53-6.22-1.41-8.44a4.89,4.89,0,0,0-.45-.46,3.07,3.07,0,0,0-.34-.29,4.25,4.25,0,0,0-.43-.31,3.14,3.14,0,0,0-.46-.28,5.85,5.85,0,0,0-.56-.28l-.42-.18-.46-.16a9.67,9.67,0,0,0-1.43-.37h-.05c-.23-.05-.47-.08-.7-.11h-.07c-.26,0-.53-.07-.8-.09h0l-.87-.07h0l-.55,0-.56,0c-3.36-.08-6.95.09-9.7,2s-4,4.88-5,7.87-1.91,6.14-3.84,8.65a10,10,0,0,1-2.83,2.5,7.66,7.66,0,0,1-.86.43,2.87,2.87,0,0,1-.37.15l-.49.17-.5.13-.26.05a2.76,2.76,0,0,1-.4.06,5.42,5.42,0,0,1-2.55-.27c-3-3.59-4.6-8.11-6-12.55s-2.84-9-5.5-12.84c-.17-.24-.34-.48-.53-.72l0,0a4.58,4.58,0,0,0-.34-.43c-.18-.23-.38-.46-.58-.68s-.36-.39-.55-.58l-.4-.4c-.17-.17-.35-.34-.54-.5s-.35-.31-.53-.45l-.79-.61,0,0-.47-.32-.76-.46a4.63,4.63,0,0,0-.43-.24l0,0a2.64,2.64,0,0,0-.29-.15l-.28-.14-.63-.28-.63-.23h0l-.48-.16-.12,0h0l-.12,0-.31-.09-.31-.07-.64-.13c-.26,0-.52-.08-.78-.1h-.23c-.22,0-.45,0-.67,0a7.44,7.44,0,0,0-6.14,2.73,9.43,9.43,0,0,0-1.4,5.22c-.26,7.31,2.13,14.7.63,21.86a7.87,7.87,0,0,1-2.36,4.61,5.38,5.38,0,0,1-1.28.77,4.37,4.37,0,0,1-.46.18h0l-.58.17-.6.13h0q-.39.08-.78.12h0l-.83.07-.44,0-.59,0h-.63c-2.17,0-4.43,0-6.37-.95a5.59,5.59,0,0,1-2.74-5.65c.88-4.8,1.75-9.66,1.32-14.52s-2.41-9.93-6.29-13c-.23-.17-.46-.35-.69-.5a5.8,5.8,0,0,0-.52-.34l-.22-.13c-.23-.14-.48-.27-.72-.39s-.52-.25-.78-.35l-.48-.18-.09,0h0l-.35-.11h0a3.9,3.9,0,0,0-.46-.12l-.3-.07c-.23-.05-.47-.09-.71-.12a7.93,7.93,0,0,0-.84-.07,7.61,7.61,0,0,0-6,2.53c-3.08,3.68-1.41,9.61-4.06,13.61a10.13,10.13,0,0,1-5.21,3.71c-.36.12-.72.24-1.1.34l-.51.12a4.88,4.88,0,0,1-.55.12l-.37.07c-.18,0-.37.06-.56.09l-.19,0a4.87,4.87,0,0,1-.55.06l-.57,0-.74,0h-.61a13.86,13.86,0,0,1-4.64-.95,12.65,12.65,0,0,1-7.24-7.32c-1.42-4-.53-8.53,1.58-12.2a33.33,33.33,0,0,1,8.38-9.66V256.58l.19.05c.45,1.77,2.44,3.49,5.81,5.14,12.34,6,43.12,11.13,84.23,14.24,9.17.69,18.84,1.29,28.95,1.77h0c7.85.38,16,.69,24.3.92h.17c12.92.37,26.35.56,40.14.56,36.85,0,71.16-1.38,99.92-3.77h0q8.5-.71,16.33-1.52l4.07-.43h0c30.73-3.4,52.51-8.07,60.24-13.39a6.57,6.57,0,0,0,3-3.56v28.92c2.91,3.15,5.88,6.4,7.45,10.39C718.8,300.47,718.42,306.08,715.19,309.78Z"/><path class="cls-14" d="M715.19,308.78a13.67,13.67,0,0,1-6.81,4,22.89,22.89,0,0,1-6.5.66l-.66,0h-.06l-.75,0a19.35,19.35,0,0,1-5.94-1.17,8.82,8.82,0,0,1-4.42-3.88c-1.44-2.61-1.58-5.7-1.84-8.66a40.56,40.56,0,0,0-2.09-10.54,19.69,19.69,0,0,0-6.06-8.74,13.15,13.15,0,0,0-1.08-.76c-.2-.14-.4-.26-.61-.38s-.42-.24-.63-.34-.67-.33-1-.47-.69-.27-1-.38l-.44-.13-.43-.11-.19-.05-.42-.09-.39-.07c-.31-.06-.63-.09-.94-.12h0c-.32,0-.63,0-1,0l-.58,0H671l-.59.07h0l-.45.07a8,8,0,0,0-5.07,2.86,12.37,12.37,0,0,0-1.89,5c-1.35,6.53.52,13.64-2.51,19.59a23.05,23.05,0,0,1-5.52,7c-2,1.68-4.64,3.07-7.05,2.3l-.06,0-.26-.1a5.19,5.19,0,0,1-2.05-1.55,7,7,0,0,1-.61-.84c-.07-.1-.13-.2-.19-.3a9.45,9.45,0,0,1-.59-1.15l0-.11-4-15.34c-1-3.79-2.21-7.93-6.9-9a8.08,8.08,0,0,0-2.9-.13l-.38.07h0l-.31.06-.31.08-.24.06h0l-.27.08a2.11,2.11,0,0,0-.3.1c-.24.08-.48.18-.71.28s-.37.16-.54.25l-.4.22a7.94,7.94,0,0,0-.87.55,4.59,4.59,0,0,0-.44.33c-.14.1-.28.22-.42.34a5.34,5.34,0,0,0-.44.39c-.15.14-.3.28-.44.43l-.35.38-.26.3a6,6,0,0,0-.39.49c-.13.17-.26.34-.38.52s-.24.35-.35.53-.21.33-.31.5a4.25,4.25,0,0,0-.27.46c-.24.44-.47.9-.67,1.36a35,35,0,0,0-2.27,9.23,58,58,0,0,1-1.74,9.37c-1.85,6-4.31,12.62-9.36,16a7.12,7.12,0,0,1-1,.55,5.42,5.42,0,0,1-.56.22l-.26.08-.06,0a2.91,2.91,0,0,1-.39.12l-.45.1-.36.06a5.77,5.77,0,0,1-.58.08h-.08a8.31,8.31,0,0,1-.87,0,9,9,0,0,1-1.47-.13h0a7.43,7.43,0,0,1-1.37-.35l-.11,0-.06,0a4.06,4.06,0,0,1-.52-.22,2.28,2.28,0,0,1-.3-.17,4.94,4.94,0,0,1-.49-.3,16.34,16.34,0,0,1-4.69-5.93A46.4,46.4,0,0,1,588.92,304c-.26-3.54-.28-7.56-3.47-9.67a6.68,6.68,0,0,0-4.94-.9l-.13,0h0c-.22,0-.43.1-.64.16l-.61.2-.1,0-.27.11a1.51,1.51,0,0,0-.26.12,6.54,6.54,0,0,0-.59.3l-.48.3a5.3,5.3,0,0,0-.54.39c-.2.15-.39.31-.58.48l-.42.4c-.13.13-.27.27-.4.42l-.07.08c-.28.33-.56.68-.81,1-.14.18-.26.37-.38.56l0,0a12.93,12.93,0,0,0-.64,1.15c-.2.41-.39.82-.55,1.23a34.36,34.36,0,0,0-1.81,8.36q-1,7.31-1.93,14.62c-.14,1.06-.28,2.12-.46,3.18-1,5.9-6.67,11.42-12.64,11.85l-.86,0c-.25,0-.49,0-.73,0a6,6,0,0,1-.74-.08h0l-.56-.1-.22,0-.57-.15h0l-.08,0-.42-.15-.06,0-.31-.13a3.86,3.86,0,0,1-.41-.2,5.38,5.38,0,0,1-.7-.39c-.14-.09-.28-.18-.41-.28h0a6.71,6.71,0,0,1-.8-.65l-.4-.37-.39-.41a9.94,9.94,0,0,1-1.76-2.77c-1.94-4.53-1.2-9.32-.41-14,.61-3.56,1.24-7.19.7-10.76a9.71,9.71,0,0,0-2.56-5.59c-.19-.18-.39-.35-.59-.51l-.36-.26-.06,0,0,0-.26-.17-.26-.14-.32-.17-.33-.14a3.33,3.33,0,0,0-.52-.21l0,0h0a7.74,7.74,0,0,0-1.05-.28h0l-.11,0a2,2,0,0,0-.35-.06,3.55,3.55,0,0,0-.47-.06l-.3,0-.63,0a9.74,9.74,0,0,0-1.94.19,16.6,16.6,0,0,0-7.22,3.78,18,18,0,0,0-5.85,7.82c-1.15,3.42.05,8.47,2.47,11.15a40,40,0,0,1,7.28,10.32c2,4.44,2.37,9.83-.11,14-.15.25-.31.5-.48.74s-.27.36-.42.54l-.07.09v0a.27.27,0,0,1-.07.08l-.06.07,0,0,0,0c-.07.09-.15.17-.23.26l-.09.09-.15.16c-.05.05-.09.1-.15.15a1.88,1.88,0,0,1-.25.24,3.08,3.08,0,0,1-.33.3,6.4,6.4,0,0,1-.49.42l-.1.07c-.21.17-.43.32-.65.47s-.49.32-.74.47l-.08.05-.7.37-.76.35-.11,0-.76.29a14.13,14.13,0,0,1-1.57.46l-.34.08-.34.07h0l-.74.13-.6.08c-.25,0-.5.05-.76.06s-.59,0-.89,0a15.81,15.81,0,0,1-1.69-.09,17.47,17.47,0,0,1-11.31-6.05c-4.33-5.13-5.3-12.22-6.09-18.9q-.84-7-1.67-14a22,22,0,0,0-1.5-6.63c-.11-.24-.23-.47-.36-.7a4.86,4.86,0,0,0-.33-.54,3.21,3.21,0,0,0-.34-.48,4.5,4.5,0,0,0-.39-.5c-.09-.12-.19-.24-.29-.35l-.1-.1-.42-.42-.13-.12-.52-.46h0c-.2-.16-.41-.32-.62-.46a5.72,5.72,0,0,0-.57-.39l-.27-.16a10.54,10.54,0,0,0-1.21-.61,6.52,6.52,0,0,0-.73-.29,7.32,7.32,0,0,0-.75-.25h0a9.94,9.94,0,0,0-12.15,5.55,13.12,13.12,0,0,0-.36,10.16,24,24,0,0,1,1,3.19c1.12,5.25-2.52,9.61-7,12.54a8.78,8.78,0,0,1-1.05.57l-.52.2-.56.19h0l-.55.15-.57.12-.29.05-.29,0a5.7,5.7,0,0,1-.58.06c-.26,0-.51,0-.77,0a8.35,8.35,0,0,1-4.44-1.15,12.36,12.36,0,0,1-5.09-7.85,24.91,24.91,0,0,1,0-9.23c.48-3.05,1.25-6.06,1.73-9.12.45-2.91.53-6.22-1.41-8.44a4.89,4.89,0,0,0-.45-.46,3.07,3.07,0,0,0-.34-.29,4.25,4.25,0,0,0-.43-.31,3.14,3.14,0,0,0-.46-.28,5.85,5.85,0,0,0-.56-.28l-.42-.18-.46-.16a9.67,9.67,0,0,0-1.43-.37h-.05c-.23-.05-.47-.08-.7-.11h-.07c-.26,0-.53-.07-.8-.09h0l-.87-.07h0l-.55,0-.56,0c-3.36-.08-6.95.09-9.7,2s-4,4.88-5,7.87-1.91,6.14-3.84,8.65a10,10,0,0,1-2.83,2.5,7.66,7.66,0,0,1-.86.43,2.87,2.87,0,0,1-.37.15l-.49.17-.5.13-.26.05a2.76,2.76,0,0,1-.4.06,5.42,5.42,0,0,1-2.55-.27c-3-3.59-4.6-8.11-6-12.55s-2.84-9-5.5-12.84c-.17-.24-.34-.48-.53-.72l0,0a4.58,4.58,0,0,0-.34-.43c-.18-.23-.38-.46-.58-.68s-.36-.39-.55-.58l-.4-.4c-.17-.17-.35-.34-.54-.5s-.35-.31-.53-.45l-.79-.61,0,0-.47-.32-.76-.46a4.63,4.63,0,0,0-.43-.24l0,0a2.64,2.64,0,0,0-.29-.15l-.28-.14-.63-.28-.63-.23h0l-.48-.16-.12,0h0l-.12,0-.31-.09-.31-.07-.64-.13c-.26,0-.52-.08-.78-.1h-.23c-.22,0-.45,0-.67,0a7.44,7.44,0,0,0-6.14,2.73,9.43,9.43,0,0,0-1.4,5.22c-.26,7.31,2.13,14.7.63,21.86a7.87,7.87,0,0,1-2.36,4.61,5.38,5.38,0,0,1-1.28.77,4.37,4.37,0,0,1-.46.18h0l-.58.17-.6.13h0q-.39.08-.78.12h0l-.83.07-.44,0-.59,0h-.63c-2.17,0-4.43,0-6.37-.95a5.59,5.59,0,0,1-2.74-5.65c.88-4.8,1.75-9.66,1.32-14.52s-2.41-9.93-6.29-13c-.23-.17-.46-.35-.69-.5a5.8,5.8,0,0,0-.52-.34l-.22-.13c-.23-.14-.48-.27-.72-.39s-.52-.25-.78-.35l-.48-.18-.09,0h0l-.35-.11h0a3.9,3.9,0,0,0-.46-.12l-.3-.07c-.23-.05-.47-.09-.71-.12l-.67-.07a7.74,7.74,0,0,0-4.72,1.2c-5.08,3.41-2.55,10.41-5.55,14.94a10.13,10.13,0,0,1-5.21,3.71c-.36.12-.72.24-1.1.34l-.51.12a4.88,4.88,0,0,1-.55.12l-.37.07c-.18,0-.37.06-.56.09l-.19,0a4.87,4.87,0,0,1-.55.06l-.57,0-.74,0h-.61a13.86,13.86,0,0,1-4.64-.95,12.65,12.65,0,0,1-7.24-7.32c-1.42-4-.53-8.53,1.58-12.2a33.33,33.33,0,0,1,8.38-9.66V255.58l.11,0a1.06,1.06,0,0,0,0,.25,3.05,3.05,0,0,0,.06.6.85.85,0,0,0,0,.17c.45,1.77,2.44,3.49,5.81,5.14,12.34,6,43.12,11.13,84.23,14.24,9.17.69,18.84,1.29,28.95,1.77h0c7.85.38,16,.69,24.3.92h.17c12.92.37,26.35.56,40.14.56,36.85,0,71.16-1.38,99.92-3.77h0q8.5-.71,16.33-1.52l4.07-.43h0c30.73-3.4,52.51-8.07,60.24-13.39a6.57,6.57,0,0,0,3-3.56v25.15a7.22,7.22,0,0,0,1.83,4.78A28.62,28.62,0,0,1,717,294.9C718.8,299.47,718.42,305.08,715.19,308.78Z"/><path class="cls-15" d="M342.33,256.63l-.19-.05.15-.12A.85.85,0,0,0,342.33,256.63Z"/><line class="cls-16" x1="344.06" y1="307.2" x2="344.06" y2="307.19"/><path class="cls-15" d="M709.56,255.59v1h0a6.57,6.57,0,0,1-3,3.56c-7.73,5.32-29.51,10-60.24,13.39h0l-4.07.43q-7.82.82-16.33,1.52h0c-28.76,2.39-63.07,3.77-99.92,3.77-13.79,0-27.22-.19-40.14-.56h-.17c-8.33-.23-16.45-.54-24.3-.92h0c-10.11-.48-19.78-1.08-28.95-1.77-41.11-3.11-71.89-8.2-84.23-14.24-3.37-1.65-5.36-3.37-5.81-5.14a.85.85,0,0,1,0-.17,3.05,3.05,0,0,1-.06-.6,1.06,1.06,0,0,1,0-.25l.08,0c.45,1.77,2.44,3.49,5.81,5.14,12.34,6,43.12,11.13,84.23,14.24,9.17.69,18.84,1.29,28.95,1.77h0c7.85.38,16,.69,24.3.92h.17c12.92.37,26.35.56,40.14.56,36.85,0,71.16-1.38,99.92-3.77h0q8.5-.71,16.33-1.52l4.07-.43h0c30.73-3.4,52.51-8.07,60.24-13.39A6.57,6.57,0,0,0,709.56,255.59Z"/><path class="cls-17" d="M709.56,256.58v-1a6.57,6.57,0,0,1-3,3.56c-7.73,5.32-29.51,10-60.24,13.39h0l-4.07.43q-7.82.82-16.33,1.52h0c-28.76,2.39-63.07,3.77-99.92,3.77-13.79,0-27.22-.19-40.14-.56h-.17c-8.33-.23-16.45-.54-24.3-.92h0c-10.11-.48-19.78-1.08-28.95-1.77-41.11-3.11-71.89-8.2-84.23-14.24-3.37-1.65-5.36-3.37-5.81-5.14l-.08,0c1.05-12.82,82.89-23.16,183.69-23.16,101.46,0,183.71,10.48,183.71,23.41A3,3,0,0,1,709.56,256.58Z"/><path class="cls-18" d="M516,225.71v36.06H477.54v-5.55C488.63,254.53,501.69,243.14,516,225.71Z"/><path class="cls-18" d="M516,162.52v22L477.54,211.4v-8.73C494,189.44,507.78,176.1,516,162.52Z"/><path class="cls-19" d="M516,132.72v29.8c-8.21,13.58-22,26.92-38.45,40.15V132.74a11.14,11.14,0,0,1,3.58-8.3c10.36-9.31,22.5-7.82,31.25-.07A11.13,11.13,0,0,1,516,132.72Z"/><path class="cls-19" d="M477.54,211.4,516,184.49v41.22c-14.3,17.43-27.36,28.82-38.45,30.51Z"/><path class="cls-20" d="M488,176.94h-6.77V131.31a1.41,1.41,0,0,1,.9-1.31l3.95-1.53a1.41,1.41,0,0,1,1.92,1.31Z"/><path class="cls-18" d="M574.36,225.71v36.06H535.91v-5.55C547,254.53,560.06,243.14,574.36,225.71Z"/><path class="cls-18" d="M574.36,162.52v22L535.91,211.4v-8.73C552.36,189.44,566.15,176.1,574.36,162.52Z"/><path class="cls-19" d="M574.36,132.72v29.8c-8.21,13.58-22,26.92-38.45,40.15V132.74a11.14,11.14,0,0,1,3.58-8.3c10.36-9.31,22.5-7.82,31.25-.07A11.13,11.13,0,0,1,574.36,132.72Z"/><path class="cls-19" d="M535.91,211.4l38.45-26.91v41.22c-14.3,17.43-27.36,28.82-38.45,30.51Z"/><path class="cls-20" d="M546.32,176.94h-6.76V131.31a1.39,1.39,0,0,1,.9-1.31l3.95-1.53a1.4,1.4,0,0,1,1.91,1.31Z"/><path class="cls-21" d="M770.56,402.91C717.13,417.54,648,426.05,567.28,430"/><path class="cls-21" d="M296.75,414.52c33.48,6.93,66.78,11.62,99.8,12.92"/><path class="cls-21" d="M211.13,615.35C322,638.24,454.9,644.73,600.46,641.8"/><path class="cls-21" d="M525.94,278.27c-61,1-117.06-2.72-151-9.08"/><path class="cls-20" d="M211.55,737.81a136.13,136.13,0,0,0-2.35,13.86,29.72,29.72,0,0,0,1.21,12.84,22.19,22.19,0,0,0,7.56,10,70.34,70.34,0,0,0,12,7.08,31.58,31.58,0,0,1-14.14-3.8,23.34,23.34,0,0,1-6.05-4.8,22.57,22.57,0,0,1-2.36-3.2,21.91,21.91,0,0,1-1.68-3.61,23,23,0,0,1-1.32-7.7,30,30,0,0,1,1-7.5A39.32,39.32,0,0,1,211.55,737.81Z"/><path class="cls-20" d="M419.45,737.59a19.92,19.92,0,0,1-3.8,11.14,17,17,0,0,1-4.56,4.34,13,13,0,0,1-6.39,2.13,11.51,11.51,0,0,1-3.54-.4,10.94,10.94,0,0,1-3.19-1.53,13,13,0,0,1-4.22-5,20.42,20.42,0,0,1-1.61-11.69c1.52,3.57,2.94,7,5,9.66s4.59,4.21,7.35,4,5.74-1.77,8.24-4.07A41.48,41.48,0,0,0,419.45,737.59Z"/><path class="cls-20" d="M923.74,669.2a46.46,46.46,0,0,1,8.62,10.5,33.46,33.46,0,0,1,4.8,13.18,21.47,21.47,0,0,1,.11,3.68l-.15,1.86c-.09.61-.25,1.23-.4,1.84a16.51,16.51,0,0,1-1.26,3.53,4.08,4.08,0,0,1-.43.83l-.49.8a13.64,13.64,0,0,1-1,1.52,22.65,22.65,0,0,1-11.67,7.45c3.38-3,6.47-6.13,8.4-9.63a18.79,18.79,0,0,0,2-11.33,49,49,0,0,0-3.34-12C927.35,677.38,925.36,673.46,923.74,669.2Z"/><path class="cls-20" d="M697.72,285.05a4.34,4.34,0,0,1,2.83-.26,10.55,10.55,0,0,1,2.76.92A18.79,18.79,0,0,1,708,289a20.73,20.73,0,0,1,3.58,4.55,15.42,15.42,0,0,1,2,5.81l.07.81V301a9.16,9.16,0,0,1-.2,1.71,10.44,10.44,0,0,1-.53,1.7A12.4,12.4,0,0,1,712,306a10.38,10.38,0,0,1-5.3,3.75,19.46,19.46,0,0,1-11.15-.13c3.5-1,6.91-2,9.59-3.48a7.7,7.7,0,0,0,2.87-2.71l.35-.78a7.52,7.52,0,0,0,.18-.85,4.4,4.4,0,0,0,.08-.91v-.47l-.06-.5a20.33,20.33,0,0,0-3.6-8.36,28.25,28.25,0,0,0-3.08-3.85,13.82,13.82,0,0,0-1.86-1.64A4.86,4.86,0,0,0,697.72,285.05Z"/><path class="cls-20" d="M344.09,280.26a58.14,58.14,0,0,0-4.16,7.6,12.49,12.49,0,0,0-1,7,7.65,7.65,0,0,0,3.8,5.15,19.62,19.62,0,0,0,8,2.13,11.65,11.65,0,0,1-9.47,1.51,10.36,10.36,0,0,1-4.66-2.8,10.21,10.21,0,0,1-2.57-5,11.53,11.53,0,0,1,.26-5.43,14.51,14.51,0,0,1,2.28-4.55A16.85,16.85,0,0,1,344.09,280.26Z"/><path class="cls-20" d="M647.61,683.47a29.14,29.14,0,0,0-3.52,2.61,37.08,37.08,0,0,0-3.16,3,35.38,35.38,0,0,0-5.11,6.83,30.47,30.47,0,0,0-3.21,7.73,32.17,32.17,0,0,0-1.16,8.22,47.82,47.82,0,0,0,2.9,16.41,89.39,89.39,0,0,0,7.29,15.4A74.23,74.23,0,0,1,649,760.17a42.24,42.24,0,0,1,1.63,9.11,28.26,28.26,0,0,1-1,9.36,22.3,22.3,0,0,1-4.39,8.34,25.89,25.89,0,0,1-7.08,5.9,36,36,0,0,1-8.32,3.44,38.51,38.51,0,0,1-8.75,1.42A43.66,43.66,0,0,0,637,791a24.94,24.94,0,0,0,5.88-5.85,20.8,20.8,0,0,0,3.23-7.38c1.15-5.29.24-10.89-1.46-16.2a79.42,79.42,0,0,0-7.25-15.37,79.56,79.56,0,0,1-7.6-16.38,46.81,46.81,0,0,1-2.37-18.16,36.28,36.28,0,0,1,1.94-9,33.38,33.38,0,0,1,4.33-8.1A32.92,32.92,0,0,1,647.61,683.47Z"/><path class="cls-20" d="M523.36,301.61a19.74,19.74,0,0,0-4.41,6.14,13.15,13.15,0,0,0-1.12,6.72,18.34,18.34,0,0,0,2.09,6.49c.57,1,1.18,2.06,1.86,3.06s1.4,1.93,2.2,3a28.55,28.55,0,0,1,4.3,7.29,16.43,16.43,0,0,1,1,4.37,11.53,11.53,0,0,1-.52,4.65,10.61,10.61,0,0,1-2.38,3.93,13.56,13.56,0,0,1-3.46,2.59,18.85,18.85,0,0,1-7.79,2.13,26.5,26.5,0,0,0,6.51-4,9.94,9.94,0,0,0,3.51-5.61,10.38,10.38,0,0,0-1.15-6.26,30.05,30.05,0,0,0-3.94-6,33,33,0,0,1-4.54-7,18.89,18.89,0,0,1-1.83-8.54,14,14,0,0,1,3-8.15A14.65,14.65,0,0,1,523.36,301.61Z"/><path class="cls-20" d="M335.82,455.23a30.29,30.29,0,0,1,5.36,9.71,26.13,26.13,0,0,1,1.23,5.63,17.88,17.88,0,0,1-.38,6.1,13.33,13.33,0,0,1-1.2,3.05,11.43,11.43,0,0,1-2.08,2.67,11.56,11.56,0,0,1-5.77,2.85,18.94,18.94,0,0,1-11.24-1.63c3.68-.51,7.24-.92,10.14-2.14a9.38,9.38,0,0,0,3.5-2.42,8.48,8.48,0,0,0,1.81-3.62,27.71,27.71,0,0,0,.17-9.62C337,462.39,336.27,458.86,335.82,455.23Z"/><path class="cls-20" d="M493.7,484a139.75,139.75,0,0,0-7.58,16.81,50.05,50.05,0,0,0-2.29,8.54,20.47,20.47,0,0,0,.15,8.2,12.24,12.24,0,0,0,4,6.45l.75.66c.28.19.58.37.86.55a12.28,12.28,0,0,0,1.79,1.07l1.91.92,2,.76a16.78,16.78,0,0,0,2.12.65l2.16.6c1.48.27,2.95.64,4.46.89s3,.49,4.58.7,3.09.36,4.65.61c-1.54.3-3.09.54-4.66.77s-3.15.24-4.74.37-3.18-.05-4.79-.09c-.8-.08-1.61-.2-2.41-.3a15.49,15.49,0,0,1-2.42-.41l-2.41-.59c-.79-.27-1.58-.59-2.37-.89a14.66,14.66,0,0,1-2.32-1.14c-.37-.21-.76-.41-1.13-.65l-1.06-.8-1.06-.82c-.32-.32-.63-.65-.94-1l-.92-1-.78-1.14c-.24-.38-.52-.76-.73-1.16l-.56-1.25a12.59,12.59,0,0,1-.88-2.57,22.61,22.61,0,0,1,.06-10.29,40.09,40.09,0,0,1,3.32-9.19A56.46,56.46,0,0,1,493.7,484Z"/><path class="cls-20" d="M720.12,468.39a28.28,28.28,0,0,1-6.24,8.9,24.33,24.33,0,0,1-9.63,6,15.09,15.09,0,0,1-6.09.6,12.15,12.15,0,0,1-5.77-2.29,13.53,13.53,0,0,1-3.86-4.36,16.85,16.85,0,0,1-1.94-5.16c2.56,2.58,5.06,5,7.81,6.14a11.48,11.48,0,0,0,8.42.28,36.94,36.94,0,0,0,8.61-4.24C714.29,472.43,717.1,470.42,720.12,468.39Z"/></svg>