<svg xmlns="http://www.w3.org/2000/svg" viewBox="0 0 1080 1080"><defs><style>.cls-1{isolation:isolate;}.cls-2{fill:#ffd1a4;}.cls-3{fill:#ebae7c;}.cls-4{fill:#2c3245;}.cls-5{fill:#2a2941;}.cls-6{fill:#f7b3b7;}.cls-7{mix-blend-mode:darken;}.cls-8{fill:#e48e8a;}.cls-9{fill:#e69896;}</style></defs><g class="cls-1"><g id="Layer_1" data-name="Layer 1"><path class="cls-2" d="M963.32,297.93,551.23,454.35V572.14L938.71,427.58l10.82-4c11-2.67,14-13.47,13.53-24.76Zm-12,119.62a12,12,0,0,1-2.95,1.13l-.26.06h0l-6.23,2.32a39,39,0,0,0,1.23-12.29l.25-97.91,15-5.69-.24,93.59V399C958.47,408.61,956.2,414.84,951.3,417.55Z"/><polygon class="cls-2" points="551.23 572.14 551.23 994.95 129.19 858.61 131.73 449.79 131.74 447.54 551.23 572.14"/><path class="cls-3" d="M551.23,594.61,197.86,489.42c10.45,179.47,98.05,340.78,190.48,452.94L129.19,858.61l2.54-408.82v-2.25l419.49,124.6Z"/><path class="cls-2" d="M551.23,572.14V995l378.3-159.33,20-8.42V423.54Zm393.3,251.74-15,6.32V436.34l15-5.6Z"/><path class="cls-2" d="M551.23,454.35V572.14L131.74,447.54v2.25c-10.43-7.44-15.4-19.48-15-33.65l3-91.18Z"/><path class="cls-4" d="M551,449.07,136.22,324.69l-8.29-2.49-8.31-2.49-4.78,1.61-.24,7.32L111.68,416c-.37,15.19,4.94,27.94,15,36.21.68.56,1.4,1.11,2.13,1.63l2.86,2.05,5,3.55h0l0-5.24L546.23,575.87l5,1.48.18.06,4.82,1.43V450.63ZM121.68,416.31l2.82-84.7L546.23,458.07V565.44l-416-123.57C123,434.13,121.49,424,121.68,416.31Z"/><polygon class="cls-2" points="963.32 297.93 551.23 454.35 119.72 324.96 551.23 179.97 963.32 297.93"/><path class="cls-5" d="M963.11,292.67,848.89,260l-4.35-1.24-5.17-1.48-5.09-1.46L594,187l-18.47-5.28-4.82-1.38-.39-.12-17.66-5.05-1.5-.42-38.67,13L496,193.25l-249.6,83.86-5.31,1.78-5.36,1.8-2.53.85-113.6,38.17-4.78,1.61-.24,7.32,5,1.49,5,1.48,103.51,31L249.23,369l49.44,14.83,32.61,9.77,215,64.46,3.56,1.07,1.44.43.19.06,4.81-1.83,179.51-68.14,21.19-8,10-3.78,11-4.18,57.57-21.85,7-2.66,6.4-2.43,9.1-3.45L958.3,305.18l5-1.9,5-1.9,0-7.22Zm-105.48,40-5.76,2.19L846.38,337l-5.62,2.14L756,371.26l-9.11,3.46-8.69,3.3L720,385,551,449.07,350.16,388.84l-24.11-7.23L314.12,378,300,373.79l-45.76-13.72-9-2.7-7.37-2.21-12.22-3.66-89.41-26.81L232,292.5l1.76-.59,5.44-1.83,5.4-1.81,258-86.7,9.51-3.19,39.22-13.18,19.23,5.5,14.62,4.19,250,71.56,5.17,1.48,5.24,1.5,3.42,1,98.47,28.19Z"/><polygon class="cls-3" points="949.53 423.54 949.53 443.46 551.23 594.61 551.23 572.14 949.53 423.54"/><path class="cls-5" d="M551.23,566.92l-.18,0-4.82-1.43-416-123.57-3.45-1,0,4.61,0,6.77-2.53,410L546.23,998.59l5.23,1.69,4.77-2V568.41Zm-5,421.16L309.94,911.75,134.21,855l2.46-395.52,0-5.23h0L546.23,575.87Z"/><path class="cls-5" d="M968.33,294.16l-5.22-1.49-7.82,3-7.81,3L551,449.07l-4.81,1.83V579.34l5-1.87.18-.06,4.82-1.8,388.3-144.87,5-1.86,1.49-.56a22.66,22.66,0,0,0,3.51-1.21c9.35-4.07,14.12-14,13.53-28.43l.25-97.3Zm-17,123.39a12,12,0,0,1-2.95,1.13l-.26.06h0l-6.23,2.32L556.23,564.94V457.8L943.31,310.87l15-5.69-.24,93.59V399C958.47,408.61,956.2,414.84,951.3,417.55Z"/><path class="cls-3" d="M958.06,399c.41,9.62-1.86,15.85-6.76,18.56a12,12,0,0,1-2.95,1.13l-.26.06h0l-6.23,2.32a39,39,0,0,0,1.23-12.29l.25-97.91,15-5.69-.24,93.59Z"/><path class="cls-4" d="M951.3,417.55l-3.21,1.19h0L556.23,564.94l-5,1.86-.18.07-4.82,1.8V998.59l.06,0,5.17,1.67,4.77-2L951.47,831.81l3.06-1.29V416.34Zm-6.77,406.33-15,6.32L556.23,987.42V575.61l373.3-139.27,15-5.6Z"/><polygon class="cls-3" points="944.53 430.74 944.53 823.88 929.53 830.2 929.53 436.34 944.53 430.74"/><polyline class="cls-6" points="265.61 366.85 262.38 898.21 346.67 925.44 346.67 370.07"/><polygon class="cls-5" points="351.67 935.31 257.36 904.84 260.61 366.82 270.61 366.88 267.4 897.58 341.67 921.57 341.67 370.07 351.67 370.07 351.67 935.31"/><polyline class="cls-6" points="813.74 363.14 817.18 877.52 732.68 913.12 732.68 366.37"/><polygon class="cls-5" points="727.68 926.13 727.68 366.36 737.68 366.36 737.68 911.06 812.16 879.69 808.74 363.18 818.74 363.11 822.2 886.31 727.68 926.13"/><g class="cls-7"><path class="cls-8" d="M502.67,200l-.05,1.6-2.81,95.75-.19,6.33-.18,6.24-.18,6.16c-20.3,18.19-86.71,55.06-149.1,72.79q-4.61,1.31-9.17,2.47-4.89,1.24-9.71,2.3c-48.73,10.74-91.65,6.82-103.27-31-.56-1.8-1-3.69-1.45-5.65q-.56-2.65-.93-5.5-.39-3-.57-6.22a92.19,92.19,0,0,1,2-24.06c2-9.77,3.77-19.28,5-28.72q.36-2.76.66-5.5t.54-5.46l2.53-.85c4.74-29.6,5.09-57.64-4-90.27-5.76-20.72-7.94-38.8-6.54-53.93a48.2,48.2,0,0,1,7-11.44,45.48,45.48,0,0,1,8.08-7.67C294.9,76.65,442.91,143.29,496,193.25c1.4,1.32,2.74,2.63,4,3.93C500.94,198.12,501.83,199.05,502.67,200Z"/></g><g class="cls-7"><path class="cls-8" d="M335.54,394.82c-34.23,24.34-48.19,36.95-65.13,51.44a3.06,3.06,0,0,0,1.6,5.37c22,2.91,45.14,4.74,69.09,5.7-4.94,17.93-14.79,37.24-26.48,59.25a7.82,7.82,0,0,0,9.86,10.92c48.41-20.09,168.46-142.45,219.94-225.74"/></g><g class="cls-7"><path class="cls-8" d="M734.5,392c32.9,31.61,57.89,60.75,67.41,85.08a7.42,7.42,0,0,1-9.43,9.63c-21.43-7.64-42.36-17.35-56.88-19.28a4.17,4.17,0,0,0-4.72,4.14v55.61a4.76,4.76,0,0,1-7.88,3.6c-29.41-25.27-54.27-57.77-75.18-96.54-24-38.74-72.53-90.2-106-121.52"/></g><g class="cls-7"><rect class="cls-8" x="501.44" y="190.1" width="105.19" height="139.23" rx="42.55"/></g><path class="cls-6" d="M335.54,374.82c-34.23,24.34-48.19,36.95-65.13,51.44a3.06,3.06,0,0,0,1.6,5.37c22,2.91,45.14,4.74,69.09,5.7-4.94,17.93-14.79,37.24-26.48,59.25a7.82,7.82,0,0,0,9.86,10.92c48.41-20.09,168.46-142.45,219.94-225.74"/><path class="cls-4" d="M321.46,513.12a12.86,12.86,0,0,1-11.25-18.88c10.1-19,19-36.26,24.23-52.19-22.45-1.06-43.65-2.89-63.08-5.46a8.07,8.07,0,0,1-4.2-14.13l5.41-4.65a712.2,712.2,0,0,1,60.07-47.06l5.8,8.15a701.13,701.13,0,0,0-59.35,46.5L277,427.23c19.83,2.47,41.45,4.19,64.34,5.11l6.29.25-1.67,6.07C340.8,457.24,330.72,477,319,498.93a2.72,2.72,0,0,0,.42,3.25,2.67,2.67,0,0,0,3.11.71C370.42,483,490.41,359.64,540.17,279.13l8.5,5.26c-51.57,83.44-172,206.89-222.27,227.73A12.86,12.86,0,0,1,321.46,513.12Z"/><g class="cls-7"><path class="cls-8" d="M858,337.92c0,1.78,0,3.56,0,5.35q0,1-.09,2c-3.27,58.91-60.33,61.38-122.13,44.38-2.66-.73-5.34-1.5-8-2.3s-5.16-1.57-7.75-2.41c-58.43-18.78-117.38-51.95-136.3-68.9l-.18-6.16-.18-6.24-.19-6.33L580.26,200q2.28-2.5,4.94-5.08,2-2,4.26-4c1.44-1.29,2.93-2.6,4.49-3.92,58.12-49,196.33-108.66,248.64-69.62a45.9,45.9,0,0,1,8.08,7.68,47.92,47.92,0,0,1,7,11.42c1.42,15.14-.77,33.22-6.53,53.95a192.46,192.46,0,0,0-6.62,68.31l-3.27,4.48c0,1.74,7.59.24,7.61,2s-8.6,1-8.53,2.76c.63,16.87,3.58,36.27,7.22,53.66.8,3.79,2.72,8.23,3.06,12.08C850.8,335.4,857.9,336.17,858,337.92Z"/></g><path class="cls-6" d="M734.5,372c32.9,31.61,57.89,60.75,67.41,85.08a7.42,7.42,0,0,1-9.43,9.63c-21.43-7.64-42.36-17.35-56.88-19.28a4.17,4.17,0,0,0-4.72,4.14v55.61a4.76,4.76,0,0,1-7.88,3.6c-29.41-25.27-54.27-57.77-75.18-96.54-24-38.74-72.53-90.2-106-121.52"/><path class="cls-4" d="M726.09,516.91a9.72,9.72,0,0,1-6.35-2.38c-29-24.93-54.66-57.85-76.25-97.84-22.53-36.28-69-86.58-105-120.37l6.83-7.3c36.6,34.28,83.82,85.46,106.8,122.53l.15.26c20.93,38.8,45.71,70.69,73.66,94.81v-55.1a9.17,9.17,0,0,1,10.38-9.1c10.77,1.44,24.51,6.77,39.07,12.43,6.13,2.38,12.48,4.84,18.83,7.11a2.4,2.4,0,0,0,2.58-.62,2.28,2.28,0,0,0,.52-2.49c-8.31-21.22-30-48.47-66.22-83.29l6.93-7.21c37.83,36.34,59.63,63.94,68.6,86.86a12.42,12.42,0,0,1-15.77,16.16c-6.48-2.31-12.89-4.8-19.09-7.2-13.53-5.25-26.33-10.23-35.83-11.7v54.66A9.67,9.67,0,0,1,730.2,516,9.85,9.85,0,0,1,726.09,516.91Z"/><path class="cls-6" d="M512.67,180c-62-67.74-328.51-179.65-276.08,9.12,11.44,41.13,8.26,74.68.43,112.14a92.55,92.55,0,0,0-2,24c6.62,119.2,233.43,7.32,274.21-29.22Z"/><path class="cls-4" d="M240.34,117.38c-7.75,16.33-7.4,39.87,1.07,70.36,9,32.42,9.19,60.36,5,89.37q-.39,2.77-.85,5.56c-.3,1.86-.61,3.73-.95,5.6-.81,4.61-1.72,9.26-2.71,14A87.34,87.34,0,0,0,240.05,325c.86,15.44,5.52,27,14.17,35.07a44.3,44.3,0,0,0,13.43,8.44c9.14,3.78,20.13,5.39,32.33,5.28,65.26-.55,165-50,199.83-76.47,2.34-1.77,4.39-3.44,6.11-5l3.34,3.72,3.34,3.73a135.59,135.59,0,0,1-13.16,10.11c-21.35,14.76-57.73,34.51-97.86,50.17C379,368.85,352,377.63,326.05,381.61c-4.14.64-8.25,1.16-12.31,1.53-4.95.46-9.83.7-14.59.7h-.48c-12.72,0-24.59-1.85-34.84-6.09a55.22,55.22,0,0,1-14.6-8.74,48.62,48.62,0,0,1-11.38-13.85q-6.82-12.27-7.79-29.6a97.73,97.73,0,0,1,2.06-25.36c.58-2.79,1.14-5.55,1.66-8.29.36-1.89.71-3.76,1-5.62s.65-3.74.94-5.6c4.74-29.6,5.09-57.64-4-90.27-5.76-20.72-7.94-38.8-6.54-53.93A78.29,78.29,0,0,1,227,125.3C231,109,239.94,96.89,253.76,89.24c38.79-21.49,103.6-1.8,138.77,11.86,50.8,19.71,100.56,50.05,123.83,75.49L512.67,180,509,183.34c-22.33-24.41-70.58-53.71-120.07-72.92C331.83,88.26,284.33,83.73,258.61,98A42.51,42.51,0,0,0,240.34,117.38Z"/><path class="cls-6" d="M570.27,180c62-67.74,328.51-179.65,276.07,9.12-11.43,41.13-8.25,74.68-.42,112.14a92.55,92.55,0,0,1,2,24c-6.62,119.2-233.43,7.32-274.21-29.22Z"/><path class="cls-4" d="M850.81,300.2a97.62,97.62,0,0,1,2.06,25.35,90,90,0,0,1-1,9.34c-.33,2-.73,3.93-1.2,5.8a58.73,58.73,0,0,1-1.81,6c-5.15,14.57-15.11,25-29.76,31-10.37,4.29-22.43,6.09-35.32,6.09a177.8,177.8,0,0,1-26.85-2.22q-4.8-.74-9.65-1.69c-3-.58-6-1.22-9-1.91a415.22,415.22,0,0,1-56.89-18c-40.13-15.66-76.52-35.42-97.86-50.17a136.84,136.84,0,0,1-13.16-10.11l3.34-3.73,3.34-3.72c1.72,1.55,3.77,3.22,6.11,5,30.34,23,109.8,63.48,172.92,73.94,3.47.58,6.9,1.07,10.26,1.45q5.94.69,11.59,1c14.22.63,27-.85,37.39-5.15,8.89-3.68,15.6-9.21,20.18-16.7a42.31,42.31,0,0,0,3.29-6.6,46.87,46.87,0,0,0,2-6.1A69.78,69.78,0,0,0,842.88,325,87.34,87.34,0,0,0,841,302.25a356.57,356.57,0,0,1-5.84-35.8c-.2-1.79-.37-3.57-.52-5.35s-.27-3.54-.38-5.31a201.39,201.39,0,0,1,7.24-68c8.48-30.5,8.82-54,1.07-70.37A42.54,42.54,0,0,0,824.32,98C798.59,83.73,751.1,88.26,694,110.42c-48.39,18.78-95.6,47.22-118.54,71.29-.53.55-1,1.09-1.53,1.63l-3.29-3-.4-.36h0l-3.68-3.37c23.26-25.44,73-55.78,123.82-75.49,35.18-13.66,100-33.35,138.77-11.86C843,96.89,852,109,855.89,125.3a78,78,0,0,1,1.8,11.17c1.42,15.14-.77,33.22-6.53,53.95a192.46,192.46,0,0,0-6.62,68.31c.12,1.77.28,3.55.45,5.33s.38,3.58.6,5.37C846.8,279.51,848.61,289.68,850.81,300.2Z"/><path class="cls-9" d="M501.43,266.78c0,.46,0,.92,0,1.38a249.18,249.18,0,0,1-46,4.06c-52.46,0-95-14.55-95-32.51s42.52-32.51,95-32.51a249.18,249.18,0,0,1,46,4.06c0,.46,0,.93,0,1.39Z"/><path class="cls-9" d="M721,239.71c0,18-42.52,32.51-95,32.51-6.74,0-13.32-.24-19.66-.7a43.72,43.72,0,0,0,.26-4.74V212.65a41.37,41.37,0,0,0-.27-4.75c6.35-.46,12.93-.7,19.67-.7C678.49,207.2,721,221.76,721,239.71Z"/><rect class="cls-6" x="501.44" y="170.1" width="105.19" height="139.23" rx="42.55"/><path class="cls-9" d="M604.62,214.65v54.13a42.5,42.5,0,0,1-17.88,34.67,42.35,42.35,0,0,0,7.88-24.67V224.65a42.55,42.55,0,0,0-42.55-42.55H532A42.35,42.35,0,0,0,507.31,190,42.5,42.5,0,0,1,542,172.1h20.09A42.55,42.55,0,0,1,604.62,214.65Z"/><path class="cls-4" d="M564.07,314.33H544a47.6,47.6,0,0,1-47.55-47.55V212.65A47.6,47.6,0,0,1,544,165.1h20.08a47.6,47.6,0,0,1,47.56,47.55v54.13A47.6,47.6,0,0,1,564.07,314.33ZM544,175.1a37.59,37.59,0,0,0-37.55,37.55v54.13A37.59,37.59,0,0,0,544,304.33h20.08a37.59,37.59,0,0,0,37.56-37.55V212.65a37.6,37.6,0,0,0-37.56-37.55Z"/></g></g></svg>